<?xml version="1.0" standalone="no"?>
<!DOCTYPE svg PUBLIC "-//W3C//DTD SVG 20010904//EN"
 "http://www.w3.org/TR/2001/REC-SVG-20010904/DTD/svg10.dtd">
<svg version="1.0" xmlns="http://www.w3.org/2000/svg"
 width="2048.000000pt" height="2048.000000pt" viewBox="0 0 2048.000000 2048.000000"
 preserveAspectRatio="xMidYMid meet">
<metadata>
Created by potrace 1.14, written by Peter Selinger 2001-2017
</metadata>
<g transform="translate(0.000000,2048.000000) scale(0.100000,-0.100000)"
fill="#000000" stroke="none">
<path d="M4065 19613 c-164 -21 -272 -48 -425 -105 -63 -23 -243 -119 -315
-166 -246 -164 -447 -391 -580 -657 -61 -123 -127 -298 -140 -375 -3 -19 -10
-53 -15 -75 -5 -22 -12 -67 -17 -100 -11 -80 -10 -16574 0 -16645 5 -30 11
-68 13 -85 2 -16 7 -37 10 -47 2 -9 7 -26 9 -39 19 -96 73 -245 137 -374 206
-414 582 -733 1026 -869 100 -31 116 -35 247 -56 106 -18 346 -19 6220 -19
3615 0 6135 4 6170 9 33 5 80 12 105 15 25 4 60 11 78 17 18 5 39 11 45 12
178 37 436 162 612 295 54 41 83 66 165 143 118 110 273 329 349 493 51 108
112 292 126 380 3 17 8 44 12 60 3 17 8 44 11 60 3 17 7 2954 9 6527 l3 6497
-2559 2558 -2558 2559 -4319 0 c-3468 0 -4339 -3 -4419 -13z"/>
</g>
</svg>
